<?xml version="1.0" encoding="UTF-8"?>
<svg xmlns="http://www.w3.org/2000/svg" viewBox="0 0 481.89 481.89">
  <defs>
    <style>
      .cls-1 {
        stroke: #050404;
        stroke-linecap: round;
        stroke-linejoin: round;
        stroke-width: 3px;
      }

      .cls-1, .cls-2, .cls-3 {
        fill: none;
      }

      .cls-4, .cls-5 {
        fill: #fff;
      }

      .cls-2 {
        stroke: #ebebed;
        stroke-width: 1.4px;
      }

      .cls-2, .cls-3 {
        stroke-miterlimit: 10;
      }

      .cls-3 {
        stroke: #fff;
        stroke-width: 1.9px;
      }

      .cls-6 {
        fill: #d8b243;
      }

      .cls-7 {
        fill: #ca9336;
      }

      .cls-5 {
        font-family: SourceHanSansSCVF-Normal, 'Source Han Sans SC VF';
        font-size: 20px;
        font-variation-settings: 'wght' 350;
      }

      .cls-8 {
        fill: #bfc0c6;
      }
    </style>
  </defs>
  <rect class="cls-4" width="481.89" height="481.89"/>
  <circle class="cls-8" cx="12.76" cy="12.58" r="3.51"/>
  <line class="cls-2" x1="11.18" y1="22.77" x2="11.18" y2="412.42"/>
  <line class="cls-2" x1="23.04" y1="10.93" x2="250.09" y2="10.93"/>
  <circle class="cls-8" cx="469.13" cy="12.58" r="3.51"/>
  <line class="cls-2" x1="470.71" y1="22.77" x2="470.71" y2="412.42"/>
  <line class="cls-2" x1="458.85" y1="10.93" x2="231.8" y2="10.93"/>
  <path class="cls-6" d="M240.94,412.42c-118.23-.06-240.94-18.78-240.94-18.78v88.26h481.89v-88.26s-122.71,18.73-240.94,18.78Z"/>
  <text class="cls-5" transform="translate(180.83 452.51)"><tspan x="0" y="0">Kim 的赞赏码</tspan></text>
  <circle class="cls-7" cx="299.12" cy="233.93" r="17.87"/>
  <path class="cls-3" d="M300.65,221.98c2.02,0,2.76,1.58,2.76,3.81s.51,3.44,2.09,3.44,3.15,1.02,3.15,4.61c0,4.92-1.91,8.77-6.38,8.77h-11.43c-1.05,0-1.25-.71-1.25-1.45v-8.57c0-.72.5-1.35,1.38-1.35,1.18,0,1.95,0,2.84,0,3.12,0,4.83-2.66,4.83-5.23,0-2.85.09-4.03,2.01-4.03Z"/>
  <polygon class="cls-4" points="296.34 235.58 299.06 238.57 305.24 232.04 299.04 236.53 296.77 235.1 296.34 235.58"/>
  <line class="cls-1" x1="233.63" y1="91.92" x2="232.99" y2="84.54"/>
  <line class="cls-1" x1="234.88" y1="106.16" x2="234.23" y2="98.7"/>
  <line class="cls-1" x1="236.12" y1="120.44" x2="235.46" y2="112.86"/>
  <line class="cls-1" x1="237.14" y1="132.14" x2="236.72" y2="127.23"/>
  <line class="cls-1" x1="219.34" y1="94.98" x2="217.29" y2="87.3"/>
  <line class="cls-1" x1="229.35" y1="132.36" x2="228.33" y2="128.56"/>
  <line class="cls-1" x1="202.3" y1="92.75" x2="202.3" y2="92.75"/>
  <line class="cls-1" x1="207.16" y1="103.18" x2="205.2" y2="98.97"/>
  <line class="cls-1" x1="209.98" y1="109.22" x2="209.98" y2="109.22"/>
  <line class="cls-1" x1="272.87" y1="130.08" x2="272.87" y2="130.08"/>
  <line class="cls-1" x1="248.3" y1="91.73" x2="248.3" y2="91.73"/>
  <line class="cls-1" x1="221.97" y1="104.8" x2="221.97" y2="104.8"/>
  <line class="cls-1" x1="258.14" y1="111.53" x2="258.14" y2="111.53"/>
  <line class="cls-1" x1="278.99" y1="121.35" x2="278.99" y2="121.35"/>
  <line class="cls-1" x1="283.1" y1="115.48" x2="283.1" y2="115.48"/>
  <line class="cls-1" x1="270.6" y1="239.29" x2="270.6" y2="239.29"/>
  <line class="cls-1" x1="267.47" y1="232.58" x2="267.47" y2="232.58"/>
  <line class="cls-1" x1="275.02" y1="224.34" x2="275.02" y2="224.34"/>
  <line class="cls-1" x1="292.4" y1="211.71" x2="292.4" y2="211.71"/>
  <line class="cls-1" x1="283.62" y1="205.55" x2="283.62" y2="205.55"/>
  <line class="cls-1" x1="284.57" y1="196.01" x2="284.57" y2="196.01"/>
  <line class="cls-1" x1="291.41" y1="199.2" x2="291.41" y2="199.2"/>
  <line class="cls-1" x1="307.55" y1="206.73" x2="307.55" y2="206.73"/>
  <line class="cls-1" x1="322.28" y1="197.47" x2="322.28" y2="197.47"/>
  <line class="cls-1" x1="321.35" y1="182.71" x2="321.35" y2="182.71"/>
  <line class="cls-1" x1="303.61" y1="181.15" x2="303.61" y2="181.15"/>
  <line class="cls-1" x1="301.55" y1="159.43" x2="301.55" y2="159.43"/>
  <line class="cls-1" x1="294.78" y1="161.25" x2="294.78" y2="161.25"/>
  <line class="cls-1" x1="284.76" y1="155.24" x2="284.76" y2="155.24"/>
  <line class="cls-1" x1="317.3" y1="140.07" x2="317.3" y2="140.07"/>
  <line class="cls-1" x1="287.81" y1="128.82" x2="287.81" y2="128.82"/>
  <line class="cls-1" x1="282.78" y1="133.84" x2="282.78" y2="133.84"/>
  <line class="cls-1" x1="248.29" y1="259.81" x2="248.29" y2="259.81"/>
  <line class="cls-1" x1="208.28" y1="245.68" x2="208.28" y2="245.68"/>
  <line class="cls-1" x1="226.53" y1="229.42" x2="226.53" y2="229.42"/>
  <line class="cls-1" x1="211.12" y1="218.23" x2="211.12" y2="218.23"/>
  <line class="cls-1" x1="184" y1="232.59" x2="184" y2="232.59"/>
  <line class="cls-1" x1="194.11" y1="222.48" x2="194.11" y2="222.48"/>
  <line class="cls-1" x1="199.23" y1="217.46" x2="199.23" y2="217.46"/>
  <line class="cls-1" x1="177.74" y1="205.12" x2="177.74" y2="205.12"/>
  <line class="cls-1" x1="177.93" y1="219.77" x2="177.93" y2="219.77"/>
  <line class="cls-1" x1="183.77" y1="215.68" x2="183.77" y2="215.68"/>
  <line class="cls-1" x1="187.33" y1="190.02" x2="187.33" y2="190.02"/>
  <line class="cls-1" x1="160.78" y1="168.63" x2="160.78" y2="168.63"/>
  <line class="cls-1" x1="183.78" y1="160.33" x2="183.78" y2="160.33"/>
  <line class="cls-1" x1="176.88" y1="158.48" x2="176.88" y2="158.48"/>
  <line class="cls-1" x1="166.65" y1="155.74" x2="166.65" y2="155.74"/>
  <line class="cls-1" x1="175.06" y1="129.51" x2="175.06" y2="129.51"/>
  <line class="cls-1" x1="186.67" y1="137.64" x2="186.67" y2="137.64"/>
  <line class="cls-1" x1="184" y1="118.69" x2="184" y2="118.69"/>
  <line class="cls-1" x1="207.05" y1="127.23" x2="207.05" y2="127.23"/>
  <line class="cls-1" x1="220.73" y1="132.28" x2="217.33" y2="124.99"/>
  <line class="cls-1" x1="188.49" y1="100.72" x2="188.49" y2="100.72"/>
  <line class="cls-1" x1="203.05" y1="121.51" x2="196.63" y2="112.35"/>
  <line class="cls-1" x1="197.08" y1="131.78" x2="193.94" y2="128.64"/>
  <line class="cls-1" x1="169.45" y1="125.58" x2="166.03" y2="123.18"/>
  <line class="cls-1" x1="171.37" y1="143.2" x2="158.05" y2="136.99"/>
  <line class="cls-1" x1="181.21" y1="147.79" x2="177.3" y2="145.97"/>
  <line class="cls-1" x1="197.51" y1="155.4" x2="193.5" y2="153.53"/>
  <line class="cls-1" x1="160.19" y1="154.01" x2="152.6" y2="151.97"/>
  <line class="cls-1" x1="197.51" y1="164.01" x2="190.62" y2="162.17"/>
  <line class="cls-1" x1="153.82" y1="168.02" x2="149.82" y2="167.67"/>
  <line class="cls-1" x1="171.76" y1="169.6" x2="167.36" y2="169.21"/>
  <line class="cls-1" x1="197.51" y1="171.85" x2="188.91" y2="171.1"/>
  <line class="cls-1" x1="157.11" y1="182.98" x2="149.82" y2="183.62"/>
  <line class="cls-1" x1="175.32" y1="181.39" x2="163.88" y2="182.39"/>
  <line class="cls-1" x1="197.51" y1="179.45" x2="192.46" y2="179.89"/>
  <line class="cls-1" x1="163.26" y1="196.46" x2="152.59" y2="199.32"/>
  <line class="cls-1" x1="180.9" y1="191.74" x2="176.46" y2="192.93"/>
  <line class="cls-1" x1="197.51" y1="187.29" x2="194.06" y2="188.21"/>
  <line class="cls-1" x1="158.04" y1="214.3" x2="158.04" y2="214.3"/>
  <line class="cls-1" x1="167.91" y1="209.7" x2="167.91" y2="209.7"/>
  <line class="cls-1" x1="197.51" y1="195.9" x2="187.33" y2="200.65"/>
  <line class="cls-1" x1="166.01" y1="228.11" x2="166.01" y2="228.11"/>
  <line class="cls-1" x1="192.84" y1="209.33" x2="189.13" y2="211.93"/>
  <line class="cls-1" x1="188.47" y1="250.58" x2="188.47" y2="250.58"/>
  <line class="cls-1" x1="203.12" y1="229.66" x2="196.69" y2="238.83"/>
  <line class="cls-1" x1="203.82" y1="255.24" x2="202.27" y2="258.55"/>
  <line class="cls-1" x1="217.65" y1="225.6" x2="215.87" y2="229.42"/>
  <line class="cls-1" x1="217.25" y1="264.01" x2="217.25" y2="264.01"/>
  <line class="cls-1" x1="220.99" y1="250.09" x2="219.06" y2="257.27"/>
  <line class="cls-1" x1="224.82" y1="235.79" x2="222.77" y2="243.44"/>
  <line class="cls-1" x1="229.21" y1="219.41" x2="228.39" y2="222.48"/>
  <line class="cls-1" x1="233.57" y1="259.81" x2="232.96" y2="266.78"/>
  <line class="cls-1" x1="237.15" y1="219" x2="236.4" y2="227.51"/>
  <line class="cls-1" x1="248.9" y1="266.78" x2="248.9" y2="266.78"/>
  <line class="cls-1" x1="246.1" y1="234.67" x2="247.06" y2="245.68"/>
  <line class="cls-1" x1="244.76" y1="219.41" x2="245.47" y2="227.51"/>
  <line class="cls-1" x1="264.6" y1="264.02" x2="264.6" y2="264.02"/>
  <line class="cls-1" x1="260.02" y1="246.89" x2="262.7" y2="256.9"/>
  <line class="cls-1" x1="257.14" y1="236.16" x2="258.22" y2="240.18"/>
  <line class="cls-1" x1="252.66" y1="219.41" x2="255.34" y2="229.42"/>
  <line class="cls-1" x1="278.04" y1="255.24" x2="279.59" y2="258.57"/>
  <line class="cls-1" x1="273.58" y1="245.68" x2="275.17" y2="249.08"/>
  <line class="cls-1" x1="261.33" y1="219.41" x2="264.6" y2="226.42"/>
  <line class="cls-1" x1="323.84" y1="214.33" x2="323.84" y2="214.33"/>
  <line class="cls-1" x1="313.84" y1="209.67" x2="317.8" y2="211.52"/>
  <line class="cls-1" x1="329.29" y1="199.35" x2="329.29" y2="199.35"/>
  <line class="cls-1" x1="311.74" y1="194.64" x2="315.87" y2="195.75"/>
  <line class="cls-1" x1="294.22" y1="189.95" x2="298.83" y2="191.18"/>
  <line class="cls-1" x1="284.08" y1="187.23" x2="288.14" y2="188.32"/>
  <line class="cls-1" x1="328.22" y1="183.31" x2="332.07" y2="183.65"/>
  <line class="cls-1" x1="310.32" y1="181.74" x2="314.68" y2="182.12"/>
  <line class="cls-1" x1="284.3" y1="179.46" x2="293.23" y2="180.25"/>
  <line class="cls-1" x1="332.07" y1="167.71" x2="332.07" y2="167.71"/>
  <line class="cls-1" x1="303.39" y1="170.21" x2="321.69" y2="168.61"/>
  <line class="cls-1" x1="284.31" y1="171.87" x2="293.27" y2="171.09"/>
  <line class="cls-1" x1="329.3" y1="152" x2="329.3" y2="152"/>
  <line class="cls-1" x1="315.18" y1="155.78" x2="319.42" y2="154.65"/>
  <line class="cls-1" x1="284.13" y1="164.1" x2="288.07" y2="163.04"/>
  <line class="cls-1" x1="323.85" y1="137.02" x2="323.85" y2="137.02"/>
  <line class="cls-1" x1="291.17" y1="152.25" x2="301.3" y2="147.53"/>
  <line class="cls-1" x1="310.19" y1="127.2" x2="315.88" y2="123.21"/>
  <line class="cls-1" x1="298.01" y1="135.72" x2="301.43" y2="133.33"/>
  <line class="cls-1" x1="289.2" y1="141.88" x2="292.53" y2="139.55"/>
  <line class="cls-1" x1="293.42" y1="100.74" x2="293.42" y2="100.74"/>
  <line class="cls-1" x1="297.93" y1="118.69" x2="297.93" y2="118.69"/>
  <line class="cls-1" x1="279.62" y1="92.77" x2="279.62" y2="92.77"/>
  <line class="cls-1" x1="276.51" y1="99.42" x2="276.51" y2="99.42"/>
  <line class="cls-1" x1="271.83" y1="109.45" x2="273.7" y2="105.45"/>
  <line class="cls-1" x1="261.19" y1="132.26" x2="269.14" y2="115.23"/>
  <line class="cls-1" x1="264.63" y1="87.31" x2="264.63" y2="87.31"/>
  <line class="cls-1" x1="260.84" y1="101.46" x2="262.81" y2="94.12"/>
  <line class="cls-1" x1="252.62" y1="132.14" x2="255.41" y2="121.73"/>
  <line class="cls-1" x1="248.93" y1="84.54" x2="248.93" y2="84.54"/>
  <line class="cls-1" x1="246.09" y1="116.93" x2="247.67" y2="98.97"/>
  <line class="cls-1" x1="244.72" y1="132.59" x2="245.19" y2="127.23"/>
  <line class="cls-1" x1="235.77" y1="234.67" x2="235.77" y2="234.67"/>
  <line class="cls-1" x1="235.14" y1="241.88" x2="235.14" y2="241.88"/>
  <line class="cls-1" x1="234.51" y1="249.08" x2="234.51" y2="249.08"/>
  <line class="cls-1" x1="220.54" y1="219.41" x2="220.54" y2="219.41"/>
  <line class="cls-1" x1="212.89" y1="235.79" x2="212.89" y2="235.79"/>
  <circle class="cls-1" cx="184" cy="118.69" r="7.41"/>
  <circle class="cls-1" cx="184" cy="232.63" r="7.41"/>
  <circle class="cls-1" cx="297.89" cy="118.69" r="7.41"/>
</svg>